<mxfile host="Electron" agent="Mozilla/5.0 (Windows NT 10.0; Win64; x64) AppleWebKit/537.36 (KHTML, like Gecko) draw.io/24.7.8 Chrome/128.0.6613.36 Electron/32.0.1 Safari/537.36" version="24.7.8">
  <diagram name="Fitness Club" id="rsdTW6nToklhm_H4OpDp">
    <mxGraphModel dx="1802" dy="909" grid="1" gridSize="10" guides="1" tooltips="1" connect="1" arrows="1" fold="1" page="1" pageScale="1" pageWidth="850" pageHeight="1100" math="0" shadow="0">
      <root>
        <mxCell id="0" />
        <mxCell id="1" parent="0" />
        <mxCell id="SNCSDTkA7rGdehGvjzrJ-22" style="edgeStyle=orthogonalEdgeStyle;shape=connector;rounded=0;orthogonalLoop=1;jettySize=auto;html=1;exitX=1;exitY=0.25;exitDx=0;exitDy=0;entryX=0.5;entryY=0;entryDx=0;entryDy=0;strokeColor=default;align=center;verticalAlign=middle;fontFamily=Helvetica;fontSize=12;fontColor=#000000;labelBackgroundColor=default;endArrow=none;endFill=0;" parent="1" source="SNCSDTkA7rGdehGvjzrJ-1" target="SNCSDTkA7rGdehGvjzrJ-18" edge="1">
          <mxGeometry relative="1" as="geometry">
            <Array as="points">
              <mxPoint x="383" y="460" />
              <mxPoint x="383" y="440" />
            </Array>
          </mxGeometry>
        </mxCell>
        <mxCell id="SNCSDTkA7rGdehGvjzrJ-64" style="edgeStyle=orthogonalEdgeStyle;shape=connector;rounded=0;orthogonalLoop=1;jettySize=auto;html=1;exitX=0.5;exitY=0;exitDx=0;exitDy=0;entryX=0.5;entryY=1;entryDx=0;entryDy=0;strokeColor=default;align=center;verticalAlign=middle;fontFamily=Helvetica;fontSize=12;fontColor=#000000;labelBackgroundColor=default;endArrow=none;endFill=0;" parent="1" source="SNCSDTkA7rGdehGvjzrJ-1" target="SNCSDTkA7rGdehGvjzrJ-63" edge="1">
          <mxGeometry relative="1" as="geometry" />
        </mxCell>
        <mxCell id="dOSycsY1AGqAJLrcLJb7-12" style="edgeStyle=orthogonalEdgeStyle;shape=connector;rounded=0;orthogonalLoop=1;jettySize=auto;html=1;exitX=0.25;exitY=1;exitDx=0;exitDy=0;strokeColor=default;align=center;verticalAlign=middle;fontFamily=Helvetica;fontSize=12;fontColor=#000000;labelBackgroundColor=default;endArrow=none;endFill=0;" parent="1" source="SNCSDTkA7rGdehGvjzrJ-1" edge="1">
          <mxGeometry relative="1" as="geometry">
            <mxPoint x="298.1724137931035" y="490.1034482758621" as="targetPoint" />
          </mxGeometry>
        </mxCell>
        <mxCell id="dOSycsY1AGqAJLrcLJb7-14" style="edgeStyle=orthogonalEdgeStyle;shape=connector;rounded=0;orthogonalLoop=1;jettySize=auto;html=1;exitX=0.25;exitY=1;exitDx=0;exitDy=0;strokeColor=default;align=center;verticalAlign=middle;fontFamily=Helvetica;fontSize=12;fontColor=#000000;labelBackgroundColor=default;endArrow=none;endFill=0;" parent="1" source="SNCSDTkA7rGdehGvjzrJ-1" edge="1">
          <mxGeometry relative="1" as="geometry">
            <mxPoint x="333" y="610" as="targetPoint" />
            <Array as="points">
              <mxPoint x="283" y="490" />
              <mxPoint x="283" y="580" />
              <mxPoint x="353" y="580" />
              <mxPoint x="353" y="610" />
            </Array>
          </mxGeometry>
        </mxCell>
        <mxCell id="SNCSDTkA7rGdehGvjzrJ-1" value="Member" style="whiteSpace=wrap;html=1;align=center;fillColor=#e51400;fontColor=#ffffff;strokeColor=#B20000;" parent="1" vertex="1">
          <mxGeometry x="273" y="450" width="100" height="40" as="geometry" />
        </mxCell>
        <mxCell id="dOSycsY1AGqAJLrcLJb7-13" style="edgeStyle=orthogonalEdgeStyle;shape=connector;rounded=0;orthogonalLoop=1;jettySize=auto;html=1;exitX=0.5;exitY=0;exitDx=0;exitDy=0;entryX=0;entryY=1;entryDx=0;entryDy=0;strokeColor=default;align=center;verticalAlign=middle;fontFamily=Helvetica;fontSize=12;fontColor=#000000;labelBackgroundColor=default;endArrow=none;endFill=0;" parent="1" source="SNCSDTkA7rGdehGvjzrJ-6" target="SNCSDTkA7rGdehGvjzrJ-1" edge="1">
          <mxGeometry relative="1" as="geometry" />
        </mxCell>
        <mxCell id="SNCSDTkA7rGdehGvjzrJ-6" value="name" style="ellipse;whiteSpace=wrap;html=1;align=center;strokeColor=#B09500;verticalAlign=middle;fontFamily=Helvetica;fontSize=12;fontColor=#000000;fillColor=#e3c800;" parent="1" vertex="1">
          <mxGeometry x="143" y="530" width="100" height="40" as="geometry" />
        </mxCell>
        <mxCell id="SNCSDTkA7rGdehGvjzrJ-7" value="address" style="ellipse;whiteSpace=wrap;html=1;align=center;strokeColor=#B09500;verticalAlign=middle;fontFamily=Helvetica;fontSize=12;fontColor=#000000;fillColor=#e3c800;" parent="1" vertex="1">
          <mxGeometry x="293" y="530" width="100" height="40" as="geometry" />
        </mxCell>
        <mxCell id="SNCSDTkA7rGdehGvjzrJ-17" style="edgeStyle=orthogonalEdgeStyle;shape=connector;rounded=0;orthogonalLoop=1;jettySize=auto;html=1;exitX=0.5;exitY=0;exitDx=0;exitDy=0;entryX=0.75;entryY=1;entryDx=0;entryDy=0;strokeColor=default;align=center;verticalAlign=middle;fontFamily=Helvetica;fontSize=12;fontColor=#000000;labelBackgroundColor=default;endArrow=none;endFill=0;" parent="1" source="SNCSDTkA7rGdehGvjzrJ-8" target="SNCSDTkA7rGdehGvjzrJ-1" edge="1">
          <mxGeometry relative="1" as="geometry" />
        </mxCell>
        <mxCell id="SNCSDTkA7rGdehGvjzrJ-8" value="&lt;u&gt;email&lt;/u&gt;" style="ellipse;whiteSpace=wrap;html=1;align=center;strokeColor=#B09500;verticalAlign=middle;fontFamily=Helvetica;fontSize=12;fontColor=#000000;fillColor=#e3c800;" parent="1" vertex="1">
          <mxGeometry x="393" y="530" width="100" height="40" as="geometry" />
        </mxCell>
        <mxCell id="SNCSDTkA7rGdehGvjzrJ-14" style="edgeStyle=orthogonalEdgeStyle;shape=connector;rounded=0;orthogonalLoop=1;jettySize=auto;html=1;exitX=1;exitY=0.5;exitDx=0;exitDy=0;entryX=0;entryY=0.75;entryDx=0;entryDy=0;strokeColor=default;align=center;verticalAlign=middle;fontFamily=Helvetica;fontSize=12;fontColor=#000000;labelBackgroundColor=default;endArrow=none;endFill=0;" parent="1" source="SNCSDTkA7rGdehGvjzrJ-9" target="SNCSDTkA7rGdehGvjzrJ-1" edge="1">
          <mxGeometry relative="1" as="geometry" />
        </mxCell>
        <mxCell id="SNCSDTkA7rGdehGvjzrJ-9" value="birthday" style="ellipse;whiteSpace=wrap;html=1;align=center;strokeColor=#B09500;verticalAlign=middle;fontFamily=Helvetica;fontSize=12;fontColor=#000000;fillColor=#e3c800;" parent="1" vertex="1">
          <mxGeometry x="143" y="460" width="100" height="40" as="geometry" />
        </mxCell>
        <mxCell id="SNCSDTkA7rGdehGvjzrJ-15" style="edgeStyle=orthogonalEdgeStyle;shape=connector;rounded=0;orthogonalLoop=1;jettySize=auto;html=1;exitX=1;exitY=0.5;exitDx=0;exitDy=0;entryX=0;entryY=0.5;entryDx=0;entryDy=0;strokeColor=default;align=center;verticalAlign=middle;fontFamily=Helvetica;fontSize=12;fontColor=#000000;labelBackgroundColor=default;endArrow=none;endFill=0;" parent="1" source="SNCSDTkA7rGdehGvjzrJ-10" target="SNCSDTkA7rGdehGvjzrJ-1" edge="1">
          <mxGeometry relative="1" as="geometry" />
        </mxCell>
        <mxCell id="SNCSDTkA7rGdehGvjzrJ-10" value="gender" style="ellipse;whiteSpace=wrap;html=1;align=center;strokeColor=#B09500;verticalAlign=middle;fontFamily=Helvetica;fontSize=12;fontColor=#000000;fillColor=#e3c800;" parent="1" vertex="1">
          <mxGeometry x="143" y="410" width="100" height="40" as="geometry" />
        </mxCell>
        <mxCell id="SNCSDTkA7rGdehGvjzrJ-12" style="edgeStyle=orthogonalEdgeStyle;shape=connector;rounded=0;orthogonalLoop=1;jettySize=auto;html=1;exitX=0.5;exitY=0;exitDx=0;exitDy=0;entryX=0.5;entryY=1;entryDx=0;entryDy=0;strokeColor=default;align=center;verticalAlign=middle;fontFamily=Helvetica;fontSize=12;fontColor=#000000;labelBackgroundColor=default;endArrow=none;endFill=0;" parent="1" source="SNCSDTkA7rGdehGvjzrJ-7" target="SNCSDTkA7rGdehGvjzrJ-1" edge="1">
          <mxGeometry relative="1" as="geometry" />
        </mxCell>
        <mxCell id="SNCSDTkA7rGdehGvjzrJ-20" style="edgeStyle=orthogonalEdgeStyle;shape=connector;rounded=0;orthogonalLoop=1;jettySize=auto;html=1;exitX=0.5;exitY=1;exitDx=0;exitDy=0;entryX=1;entryY=0.75;entryDx=0;entryDy=0;strokeColor=default;align=center;verticalAlign=middle;fontFamily=Helvetica;fontSize=12;fontColor=#000000;labelBackgroundColor=default;endArrow=none;endFill=0;" parent="1" source="SNCSDTkA7rGdehGvjzrJ-18" target="SNCSDTkA7rGdehGvjzrJ-1" edge="1">
          <mxGeometry relative="1" as="geometry">
            <Array as="points">
              <mxPoint x="443" y="500" />
              <mxPoint x="383" y="500" />
              <mxPoint x="383" y="480" />
            </Array>
          </mxGeometry>
        </mxCell>
        <mxCell id="SNCSDTkA7rGdehGvjzrJ-18" value="parent_of" style="shape=rhombus;perimeter=rhombusPerimeter;whiteSpace=wrap;html=1;align=center;strokeColor=#2D7600;verticalAlign=middle;fontFamily=Helvetica;fontSize=12;fontColor=#ffffff;fillColor=#60a917;" parent="1" vertex="1">
          <mxGeometry x="403" y="440" width="120" height="60" as="geometry" />
        </mxCell>
        <mxCell id="SNCSDTkA7rGdehGvjzrJ-23" value="&lt;p style=&quot;line-height: 100%;&quot;&gt;&lt;font color=&quot;#ffffff&quot;&gt;N&lt;/font&gt;&lt;/p&gt;" style="text;html=1;align=center;verticalAlign=middle;resizable=0;points=[];autosize=1;strokeColor=none;fillColor=none;fontFamily=Helvetica;fontSize=12;fontColor=#000000;" parent="1" vertex="1">
          <mxGeometry x="378" y="430" width="30" height="50" as="geometry" />
        </mxCell>
        <mxCell id="SNCSDTkA7rGdehGvjzrJ-24" value="&lt;p style=&quot;line-height: 100%;&quot;&gt;&lt;font color=&quot;#ffffff&quot;&gt;M&lt;/font&gt;&lt;/p&gt;" style="text;html=1;align=center;verticalAlign=middle;resizable=0;points=[];autosize=1;strokeColor=none;fillColor=none;fontFamily=Helvetica;fontSize=12;fontColor=#000000;" parent="1" vertex="1">
          <mxGeometry x="378" y="460" width="30" height="50" as="geometry" />
        </mxCell>
        <mxCell id="SNCSDTkA7rGdehGvjzrJ-33" style="edgeStyle=orthogonalEdgeStyle;shape=connector;rounded=0;orthogonalLoop=1;jettySize=auto;html=1;exitX=0.5;exitY=0;exitDx=0;exitDy=0;entryX=0.5;entryY=1;entryDx=0;entryDy=0;strokeColor=default;align=center;verticalAlign=middle;fontFamily=Helvetica;fontSize=12;fontColor=#000000;labelBackgroundColor=default;endArrow=none;endFill=0;" parent="1" source="SNCSDTkA7rGdehGvjzrJ-25" target="SNCSDTkA7rGdehGvjzrJ-32" edge="1">
          <mxGeometry relative="1" as="geometry">
            <Array as="points">
              <mxPoint x="323" y="260" />
              <mxPoint x="423" y="260" />
            </Array>
          </mxGeometry>
        </mxCell>
        <mxCell id="SNCSDTkA7rGdehGvjzrJ-34" style="edgeStyle=orthogonalEdgeStyle;shape=connector;rounded=0;orthogonalLoop=1;jettySize=auto;html=1;exitX=0.25;exitY=0;exitDx=0;exitDy=0;entryX=0.5;entryY=1;entryDx=0;entryDy=0;strokeColor=default;align=center;verticalAlign=middle;fontFamily=Helvetica;fontSize=12;fontColor=#000000;labelBackgroundColor=default;endArrow=none;endFill=0;" parent="1" source="SNCSDTkA7rGdehGvjzrJ-25" target="SNCSDTkA7rGdehGvjzrJ-30" edge="1">
          <mxGeometry relative="1" as="geometry" />
        </mxCell>
        <mxCell id="SNCSDTkA7rGdehGvjzrJ-25" value="Course" style="whiteSpace=wrap;html=1;align=center;strokeColor=#B20000;verticalAlign=middle;fontFamily=Helvetica;fontSize=12;fontColor=#ffffff;fillColor=#e51400;" parent="1" vertex="1">
          <mxGeometry x="263" y="270" width="100" height="40" as="geometry" />
        </mxCell>
        <mxCell id="SNCSDTkA7rGdehGvjzrJ-27" style="edgeStyle=orthogonalEdgeStyle;shape=connector;rounded=0;orthogonalLoop=1;jettySize=auto;html=1;exitX=1;exitY=0.5;exitDx=0;exitDy=0;strokeColor=default;align=center;verticalAlign=middle;fontFamily=Helvetica;fontSize=12;fontColor=#000000;labelBackgroundColor=default;endArrow=none;endFill=0;" parent="1" source="SNCSDTkA7rGdehGvjzrJ-26" edge="1">
          <mxGeometry relative="1" as="geometry">
            <mxPoint x="263" y="280" as="targetPoint" />
            <Array as="points">
              <mxPoint x="233" y="280" />
              <mxPoint x="263" y="280" />
            </Array>
          </mxGeometry>
        </mxCell>
        <mxCell id="SNCSDTkA7rGdehGvjzrJ-26" value="course_no" style="ellipse;whiteSpace=wrap;html=1;align=center;strokeColor=#B09500;verticalAlign=middle;fontFamily=Helvetica;fontSize=12;fontColor=#000000;fillColor=#e3c800;fontStyle=4" parent="1" vertex="1">
          <mxGeometry x="153" y="260" width="100" height="40" as="geometry" />
        </mxCell>
        <mxCell id="SNCSDTkA7rGdehGvjzrJ-30" value="title" style="ellipse;whiteSpace=wrap;html=1;align=center;strokeColor=#B09500;verticalAlign=middle;fontFamily=Helvetica;fontSize=12;fontColor=#000000;fillColor=#e3c800;" parent="1" vertex="1">
          <mxGeometry x="223" y="210" width="100" height="40" as="geometry" />
        </mxCell>
        <mxCell id="SNCSDTkA7rGdehGvjzrJ-32" value="target_group" style="ellipse;whiteSpace=wrap;html=1;align=center;strokeColor=#B09500;verticalAlign=middle;fontFamily=Helvetica;fontSize=12;fontColor=#000000;fillColor=#e3c800;" parent="1" vertex="1">
          <mxGeometry x="333" y="210" width="100" height="40" as="geometry" />
        </mxCell>
        <mxCell id="SNCSDTkA7rGdehGvjzrJ-37" style="edgeStyle=orthogonalEdgeStyle;shape=connector;rounded=0;orthogonalLoop=1;jettySize=auto;html=1;exitX=0.25;exitY=0;exitDx=0;exitDy=0;entryX=0.5;entryY=1;entryDx=0;entryDy=0;strokeColor=default;align=center;verticalAlign=middle;fontFamily=Helvetica;fontSize=12;fontColor=#000000;labelBackgroundColor=default;endArrow=none;endFill=0;" parent="1" source="SNCSDTkA7rGdehGvjzrJ-35" target="SNCSDTkA7rGdehGvjzrJ-36" edge="1">
          <mxGeometry relative="1" as="geometry" />
        </mxCell>
        <mxCell id="SNCSDTkA7rGdehGvjzrJ-39" style="edgeStyle=orthogonalEdgeStyle;shape=connector;rounded=0;orthogonalLoop=1;jettySize=auto;html=1;exitX=0.75;exitY=0;exitDx=0;exitDy=0;entryX=0.5;entryY=1;entryDx=0;entryDy=0;strokeColor=default;align=center;verticalAlign=middle;fontFamily=Helvetica;fontSize=12;fontColor=#000000;labelBackgroundColor=default;endArrow=none;endFill=0;" parent="1" source="SNCSDTkA7rGdehGvjzrJ-35" target="SNCSDTkA7rGdehGvjzrJ-38" edge="1">
          <mxGeometry relative="1" as="geometry">
            <Array as="points">
              <mxPoint x="628" y="260" />
              <mxPoint x="673" y="260" />
            </Array>
          </mxGeometry>
        </mxCell>
        <mxCell id="SNCSDTkA7rGdehGvjzrJ-41" style="edgeStyle=orthogonalEdgeStyle;shape=connector;rounded=0;orthogonalLoop=1;jettySize=auto;html=1;exitX=0;exitY=0.5;exitDx=0;exitDy=0;entryX=1;entryY=0.5;entryDx=0;entryDy=0;strokeColor=default;align=center;verticalAlign=middle;fontFamily=Helvetica;fontSize=12;fontColor=#000000;labelBackgroundColor=default;endArrow=none;endFill=0;" parent="1" source="SNCSDTkA7rGdehGvjzrJ-35" target="SNCSDTkA7rGdehGvjzrJ-40" edge="1">
          <mxGeometry relative="1" as="geometry" />
        </mxCell>
        <mxCell id="SNCSDTkA7rGdehGvjzrJ-35" value="Trainer" style="whiteSpace=wrap;html=1;align=center;strokeColor=#B20000;verticalAlign=middle;fontFamily=Helvetica;fontSize=12;fontColor=#ffffff;fillColor=#e51400;" parent="1" vertex="1">
          <mxGeometry x="553" y="270" width="100" height="40" as="geometry" />
        </mxCell>
        <mxCell id="SNCSDTkA7rGdehGvjzrJ-36" value="name" style="ellipse;whiteSpace=wrap;html=1;align=center;strokeColor=#B09500;verticalAlign=middle;fontFamily=Helvetica;fontSize=12;fontColor=#000000;fillColor=#e3c800;" parent="1" vertex="1">
          <mxGeometry x="513" y="210" width="100" height="40" as="geometry" />
        </mxCell>
        <mxCell id="SNCSDTkA7rGdehGvjzrJ-38" value="license" style="ellipse;whiteSpace=wrap;html=1;align=center;strokeColor=#B09500;verticalAlign=middle;fontFamily=Helvetica;fontSize=12;fontColor=#000000;fillColor=#e3c800;" parent="1" vertex="1">
          <mxGeometry x="623" y="210" width="100" height="40" as="geometry" />
        </mxCell>
        <mxCell id="SNCSDTkA7rGdehGvjzrJ-42" style="edgeStyle=orthogonalEdgeStyle;shape=connector;rounded=0;orthogonalLoop=1;jettySize=auto;html=1;exitX=0;exitY=0.5;exitDx=0;exitDy=0;entryX=1;entryY=0.5;entryDx=0;entryDy=0;strokeColor=default;align=center;verticalAlign=middle;fontFamily=Helvetica;fontSize=12;fontColor=#000000;labelBackgroundColor=default;endArrow=none;endFill=0;" parent="1" source="SNCSDTkA7rGdehGvjzrJ-40" target="SNCSDTkA7rGdehGvjzrJ-25" edge="1">
          <mxGeometry relative="1" as="geometry" />
        </mxCell>
        <mxCell id="SNCSDTkA7rGdehGvjzrJ-40" value="teaches" style="shape=rhombus;perimeter=rhombusPerimeter;whiteSpace=wrap;html=1;align=center;strokeColor=#2D7600;verticalAlign=middle;fontFamily=Helvetica;fontSize=12;fontColor=#ffffff;fillColor=#60a917;" parent="1" vertex="1">
          <mxGeometry x="403" y="260" width="120" height="60" as="geometry" />
        </mxCell>
        <mxCell id="SNCSDTkA7rGdehGvjzrJ-43" value="&lt;p style=&quot;line-height: 100%;&quot;&gt;&lt;font color=&quot;#ffffff&quot;&gt;N&lt;/font&gt;&lt;/p&gt;" style="text;html=1;align=center;verticalAlign=middle;resizable=0;points=[];autosize=1;strokeColor=none;fillColor=none;fontFamily=Helvetica;fontSize=12;fontColor=#000000;" parent="1" vertex="1">
          <mxGeometry x="363" y="255" width="30" height="50" as="geometry" />
        </mxCell>
        <mxCell id="SNCSDTkA7rGdehGvjzrJ-44" value="&lt;p style=&quot;line-height: 100%;&quot;&gt;&lt;font color=&quot;#ffffff&quot;&gt;1&lt;/font&gt;&lt;/p&gt;" style="text;html=1;align=center;verticalAlign=middle;resizable=0;points=[];autosize=1;strokeColor=none;fillColor=none;fontFamily=Helvetica;fontSize=12;fontColor=#000000;" parent="1" vertex="1">
          <mxGeometry x="523" y="255" width="30" height="50" as="geometry" />
        </mxCell>
        <mxCell id="SNCSDTkA7rGdehGvjzrJ-45" value="trainer_id" style="ellipse;whiteSpace=wrap;html=1;align=center;strokeColor=#B09500;verticalAlign=middle;fontFamily=Helvetica;fontSize=12;fontColor=#000000;fillColor=#e3c800;fontStyle=4" parent="1" vertex="1">
          <mxGeometry x="623" y="310" width="100" height="40" as="geometry" />
        </mxCell>
        <mxCell id="SNCSDTkA7rGdehGvjzrJ-46" style="edgeStyle=orthogonalEdgeStyle;shape=connector;rounded=0;orthogonalLoop=1;jettySize=auto;html=1;exitX=1;exitY=0.5;exitDx=0;exitDy=0;entryX=0.5;entryY=0;entryDx=0;entryDy=0;strokeColor=default;align=center;verticalAlign=middle;fontFamily=Helvetica;fontSize=12;fontColor=#000000;labelBackgroundColor=default;endArrow=none;endFill=0;" parent="1" source="SNCSDTkA7rGdehGvjzrJ-35" target="SNCSDTkA7rGdehGvjzrJ-45" edge="1">
          <mxGeometry relative="1" as="geometry" />
        </mxCell>
        <mxCell id="SNCSDTkA7rGdehGvjzrJ-54" style="edgeStyle=orthogonalEdgeStyle;shape=connector;rounded=0;orthogonalLoop=1;jettySize=auto;html=1;exitX=0;exitY=0.5;exitDx=0;exitDy=0;entryX=1;entryY=0.5;entryDx=0;entryDy=0;strokeColor=default;align=center;verticalAlign=middle;fontFamily=Helvetica;fontSize=12;fontColor=#000000;labelBackgroundColor=default;endArrow=none;endFill=0;" parent="1" source="SNCSDTkA7rGdehGvjzrJ-47" target="SNCSDTkA7rGdehGvjzrJ-53" edge="1">
          <mxGeometry relative="1" as="geometry">
            <Array as="points">
              <mxPoint x="543" y="470" />
              <mxPoint x="543" y="370" />
            </Array>
          </mxGeometry>
        </mxCell>
        <mxCell id="SNCSDTkA7rGdehGvjzrJ-59" style="edgeStyle=orthogonalEdgeStyle;shape=connector;rounded=0;orthogonalLoop=1;jettySize=auto;html=1;exitX=0.5;exitY=0;exitDx=0;exitDy=0;entryX=0.5;entryY=1;entryDx=0;entryDy=0;strokeColor=default;align=center;verticalAlign=middle;fontFamily=Helvetica;fontSize=12;fontColor=#000000;labelBackgroundColor=default;endArrow=none;endFill=0;" parent="1" source="SNCSDTkA7rGdehGvjzrJ-47" target="SNCSDTkA7rGdehGvjzrJ-58" edge="1">
          <mxGeometry relative="1" as="geometry" />
        </mxCell>
        <mxCell id="SNCSDTkA7rGdehGvjzrJ-47" value="Area" style="whiteSpace=wrap;html=1;align=center;strokeColor=#B20000;verticalAlign=middle;fontFamily=Helvetica;fontSize=12;fontColor=#ffffff;fillColor=#e51400;" parent="1" vertex="1">
          <mxGeometry x="583" y="450" width="100" height="40" as="geometry" />
        </mxCell>
        <mxCell id="SNCSDTkA7rGdehGvjzrJ-49" style="edgeStyle=orthogonalEdgeStyle;shape=connector;rounded=0;orthogonalLoop=1;jettySize=auto;html=1;exitX=0.5;exitY=0;exitDx=0;exitDy=0;strokeColor=default;align=center;verticalAlign=middle;fontFamily=Helvetica;fontSize=12;fontColor=#000000;labelBackgroundColor=default;endArrow=none;endFill=0;entryX=0.25;entryY=1;entryDx=0;entryDy=0;" parent="1" source="SNCSDTkA7rGdehGvjzrJ-48" target="SNCSDTkA7rGdehGvjzrJ-47" edge="1">
          <mxGeometry relative="1" as="geometry">
            <mxPoint x="612.9999999999998" y="500" as="targetPoint" />
          </mxGeometry>
        </mxCell>
        <mxCell id="SNCSDTkA7rGdehGvjzrJ-48" value="&lt;u&gt;name&lt;/u&gt;" style="ellipse;whiteSpace=wrap;html=1;align=center;strokeColor=#B09500;verticalAlign=middle;fontFamily=Helvetica;fontSize=12;fontColor=#000000;fillColor=#e3c800;" parent="1" vertex="1">
          <mxGeometry x="503" y="530" width="100" height="40" as="geometry" />
        </mxCell>
        <mxCell id="SNCSDTkA7rGdehGvjzrJ-52" style="edgeStyle=orthogonalEdgeStyle;shape=connector;rounded=0;orthogonalLoop=1;jettySize=auto;html=1;exitX=0.5;exitY=0;exitDx=0;exitDy=0;entryX=0.5;entryY=1;entryDx=0;entryDy=0;strokeColor=default;align=center;verticalAlign=middle;fontFamily=Helvetica;fontSize=12;fontColor=#000000;labelBackgroundColor=default;endArrow=none;endFill=0;" parent="1" source="SNCSDTkA7rGdehGvjzrJ-50" target="SNCSDTkA7rGdehGvjzrJ-47" edge="1">
          <mxGeometry relative="1" as="geometry" />
        </mxCell>
        <mxCell id="SNCSDTkA7rGdehGvjzrJ-50" value="description" style="ellipse;whiteSpace=wrap;html=1;align=center;strokeColor=#B09500;verticalAlign=middle;fontFamily=Helvetica;fontSize=12;fontColor=#000000;fillColor=#e3c800;" parent="1" vertex="1">
          <mxGeometry x="613" y="530" width="100" height="40" as="geometry" />
        </mxCell>
        <mxCell id="SNCSDTkA7rGdehGvjzrJ-55" style="edgeStyle=orthogonalEdgeStyle;shape=connector;rounded=0;orthogonalLoop=1;jettySize=auto;html=1;exitX=0;exitY=0.5;exitDx=0;exitDy=0;entryX=0.5;entryY=1;entryDx=0;entryDy=0;strokeColor=default;align=center;verticalAlign=middle;fontFamily=Helvetica;fontSize=12;fontColor=#000000;labelBackgroundColor=default;endArrow=none;endFill=0;" parent="1" source="SNCSDTkA7rGdehGvjzrJ-53" target="SNCSDTkA7rGdehGvjzrJ-25" edge="1">
          <mxGeometry relative="1" as="geometry" />
        </mxCell>
        <mxCell id="SNCSDTkA7rGdehGvjzrJ-53" value="belongs_to" style="shape=rhombus;perimeter=rhombusPerimeter;whiteSpace=wrap;html=1;align=center;strokeColor=#2D7600;verticalAlign=middle;fontFamily=Helvetica;fontSize=12;fontColor=#ffffff;fillColor=#60a917;" parent="1" vertex="1">
          <mxGeometry x="403" y="340" width="120" height="60" as="geometry" />
        </mxCell>
        <mxCell id="SNCSDTkA7rGdehGvjzrJ-56" value="&lt;p style=&quot;line-height: 100%;&quot;&gt;&lt;font color=&quot;#ffffff&quot;&gt;1&lt;/font&gt;&lt;/p&gt;" style="text;html=1;align=center;verticalAlign=middle;resizable=0;points=[];autosize=1;strokeColor=none;fillColor=none;fontFamily=Helvetica;fontSize=12;fontColor=#000000;" parent="1" vertex="1">
          <mxGeometry x="513" y="330" width="30" height="50" as="geometry" />
        </mxCell>
        <mxCell id="SNCSDTkA7rGdehGvjzrJ-57" value="&lt;p style=&quot;line-height: 100%;&quot;&gt;&lt;font color=&quot;#ffffff&quot;&gt;N&lt;/font&gt;&lt;/p&gt;" style="text;html=1;align=center;verticalAlign=middle;resizable=0;points=[];autosize=1;strokeColor=none;fillColor=none;fontFamily=Helvetica;fontSize=12;fontColor=#000000;" parent="1" vertex="1">
          <mxGeometry x="378" y="330" width="30" height="50" as="geometry" />
        </mxCell>
        <mxCell id="SNCSDTkA7rGdehGvjzrJ-61" style="edgeStyle=orthogonalEdgeStyle;shape=connector;rounded=0;orthogonalLoop=1;jettySize=auto;html=1;exitX=0.5;exitY=0;exitDx=0;exitDy=0;entryX=0.5;entryY=1;entryDx=0;entryDy=0;strokeColor=default;align=center;verticalAlign=middle;fontFamily=Helvetica;fontSize=12;fontColor=#000000;labelBackgroundColor=default;endArrow=none;endFill=0;" parent="1" source="SNCSDTkA7rGdehGvjzrJ-58" target="SNCSDTkA7rGdehGvjzrJ-35" edge="1">
          <mxGeometry relative="1" as="geometry">
            <Array as="points">
              <mxPoint x="603" y="370" />
            </Array>
          </mxGeometry>
        </mxCell>
        <mxCell id="SNCSDTkA7rGdehGvjzrJ-58" value="headed_by" style="shape=rhombus;perimeter=rhombusPerimeter;whiteSpace=wrap;html=1;align=center;strokeColor=#2D7600;verticalAlign=middle;fontFamily=Helvetica;fontSize=12;fontColor=#ffffff;fillColor=#60a917;" parent="1" vertex="1">
          <mxGeometry x="573" y="370" width="120" height="60" as="geometry" />
        </mxCell>
        <mxCell id="SNCSDTkA7rGdehGvjzrJ-60" value="&lt;p style=&quot;line-height: 100%;&quot;&gt;&lt;font color=&quot;#ffffff&quot;&gt;1&lt;/font&gt;&lt;/p&gt;" style="text;html=1;align=center;verticalAlign=middle;resizable=0;points=[];autosize=1;strokeColor=none;fillColor=none;fontFamily=Helvetica;fontSize=12;fontColor=#000000;" parent="1" vertex="1">
          <mxGeometry x="603" y="410" width="30" height="50" as="geometry" />
        </mxCell>
        <mxCell id="SNCSDTkA7rGdehGvjzrJ-62" value="&lt;p style=&quot;line-height: 100%;&quot;&gt;&lt;font color=&quot;#ffffff&quot;&gt;1&lt;/font&gt;&lt;/p&gt;" style="text;html=1;align=center;verticalAlign=middle;resizable=0;points=[];autosize=1;strokeColor=none;fillColor=none;fontFamily=Helvetica;fontSize=12;fontColor=#000000;" parent="1" vertex="1">
          <mxGeometry x="603" y="330" width="30" height="50" as="geometry" />
        </mxCell>
        <mxCell id="SNCSDTkA7rGdehGvjzrJ-65" style="edgeStyle=orthogonalEdgeStyle;shape=connector;rounded=0;orthogonalLoop=1;jettySize=auto;html=1;exitX=0.5;exitY=0;exitDx=0;exitDy=0;strokeColor=default;align=center;verticalAlign=middle;fontFamily=Helvetica;fontSize=12;fontColor=#000000;labelBackgroundColor=default;endArrow=none;endFill=0;" parent="1" source="SNCSDTkA7rGdehGvjzrJ-63" edge="1">
          <mxGeometry relative="1" as="geometry">
            <mxPoint x="283" y="310" as="targetPoint" />
            <Array as="points">
              <mxPoint x="283" y="330" />
              <mxPoint x="283" y="310" />
            </Array>
          </mxGeometry>
        </mxCell>
        <mxCell id="SNCSDTkA7rGdehGvjzrJ-63" value="enrolled_in" style="shape=rhombus;perimeter=rhombusPerimeter;whiteSpace=wrap;html=1;align=center;strokeColor=#2D7600;verticalAlign=middle;fontFamily=Helvetica;fontSize=12;fontColor=#ffffff;fillColor=#60a917;" parent="1" vertex="1">
          <mxGeometry x="193" y="330" width="120" height="60" as="geometry" />
        </mxCell>
        <mxCell id="SNCSDTkA7rGdehGvjzrJ-66" value="&lt;p style=&quot;line-height: 100%;&quot;&gt;&lt;font color=&quot;#ffffff&quot;&gt;N&lt;/font&gt;&lt;/p&gt;" style="text;html=1;align=center;verticalAlign=middle;resizable=0;points=[];autosize=1;strokeColor=none;fillColor=none;fontFamily=Helvetica;fontSize=12;fontColor=#000000;" parent="1" vertex="1">
          <mxGeometry x="223" y="370" width="30" height="50" as="geometry" />
        </mxCell>
        <mxCell id="SNCSDTkA7rGdehGvjzrJ-68" value="&lt;p style=&quot;line-height: 100%;&quot;&gt;&lt;font color=&quot;#ffffff&quot;&gt;M&lt;/font&gt;&lt;/p&gt;" style="text;html=1;align=center;verticalAlign=middle;resizable=0;points=[];autosize=1;strokeColor=none;fillColor=none;fontFamily=Helvetica;fontSize=12;fontColor=#000000;" parent="1" vertex="1">
          <mxGeometry x="223" y="300" width="30" height="50" as="geometry" />
        </mxCell>
        <mxCell id="dOSycsY1AGqAJLrcLJb7-2" value="device_id" style="ellipse;whiteSpace=wrap;html=1;align=center;strokeColor=#B09500;verticalAlign=middle;fontFamily=Helvetica;fontSize=12;fontColor=#000000;fillColor=#e3c800;" parent="1" vertex="1">
          <mxGeometry x="128" y="670" width="100" height="40" as="geometry" />
        </mxCell>
        <mxCell id="dOSycsY1AGqAJLrcLJb7-3" value="name" style="ellipse;whiteSpace=wrap;html=1;align=center;strokeColor=#B09500;verticalAlign=middle;fontFamily=Helvetica;fontSize=12;fontColor=#000000;fillColor=#e3c800;" parent="1" vertex="1">
          <mxGeometry x="248" y="670" width="100" height="40" as="geometry" />
        </mxCell>
        <mxCell id="dOSycsY1AGqAJLrcLJb7-8" value="Timeslot" style="whiteSpace=wrap;html=1;align=center;strokeColor=#B20000;verticalAlign=middle;fontFamily=Helvetica;fontSize=12;fontColor=#ffffff;fillColor=#e51400;" parent="1" vertex="1">
          <mxGeometry x="443" y="600" width="100" height="40" as="geometry" />
        </mxCell>
        <mxCell id="dOSycsY1AGqAJLrcLJb7-10" style="edgeStyle=orthogonalEdgeStyle;shape=connector;rounded=0;orthogonalLoop=1;jettySize=auto;html=1;exitX=0.25;exitY=1;exitDx=0;exitDy=0;entryX=0.5;entryY=0;entryDx=0;entryDy=0;strokeColor=default;align=center;verticalAlign=middle;fontFamily=Helvetica;fontSize=12;fontColor=#000000;labelBackgroundColor=default;endArrow=none;endFill=0;" parent="1" source="dOSycsY1AGqAJLrcLJb7-9" target="dOSycsY1AGqAJLrcLJb7-2" edge="1">
          <mxGeometry relative="1" as="geometry" />
        </mxCell>
        <mxCell id="dOSycsY1AGqAJLrcLJb7-11" style="edgeStyle=orthogonalEdgeStyle;shape=connector;rounded=0;orthogonalLoop=1;jettySize=auto;html=1;exitX=0.75;exitY=1;exitDx=0;exitDy=0;entryX=0.5;entryY=0;entryDx=0;entryDy=0;strokeColor=default;align=center;verticalAlign=middle;fontFamily=Helvetica;fontSize=12;fontColor=#000000;labelBackgroundColor=default;endArrow=none;endFill=0;" parent="1" source="dOSycsY1AGqAJLrcLJb7-9" target="dOSycsY1AGqAJLrcLJb7-3" edge="1">
          <mxGeometry relative="1" as="geometry">
            <Array as="points">
              <mxPoint x="228" y="660" />
              <mxPoint x="298" y="660" />
            </Array>
          </mxGeometry>
        </mxCell>
        <mxCell id="dOSycsY1AGqAJLrcLJb7-16" style="edgeStyle=orthogonalEdgeStyle;shape=connector;rounded=0;orthogonalLoop=1;jettySize=auto;html=1;exitX=1;exitY=0.5;exitDx=0;exitDy=0;entryX=0;entryY=0.5;entryDx=0;entryDy=0;strokeColor=default;align=center;verticalAlign=middle;fontFamily=Helvetica;fontSize=12;fontColor=#000000;labelBackgroundColor=default;endArrow=none;endFill=0;" parent="1" source="dOSycsY1AGqAJLrcLJb7-9" target="dOSycsY1AGqAJLrcLJb7-15" edge="1">
          <mxGeometry relative="1" as="geometry" />
        </mxCell>
        <mxCell id="dOSycsY1AGqAJLrcLJb7-9" value="Sports Device" style="whiteSpace=wrap;html=1;align=center;strokeColor=#B20000;verticalAlign=middle;fontFamily=Helvetica;fontSize=12;fontColor=#ffffff;fillColor=#e51400;" parent="1" vertex="1">
          <mxGeometry x="163" y="600" width="100" height="40" as="geometry" />
        </mxCell>
        <mxCell id="dOSycsY1AGqAJLrcLJb7-17" style="edgeStyle=orthogonalEdgeStyle;shape=connector;rounded=0;orthogonalLoop=1;jettySize=auto;html=1;exitX=1;exitY=0.5;exitDx=0;exitDy=0;entryX=0;entryY=0.5;entryDx=0;entryDy=0;strokeColor=default;align=center;verticalAlign=middle;fontFamily=Helvetica;fontSize=12;fontColor=#000000;labelBackgroundColor=default;endArrow=none;endFill=0;" parent="1" source="dOSycsY1AGqAJLrcLJb7-15" target="dOSycsY1AGqAJLrcLJb7-8" edge="1">
          <mxGeometry relative="1" as="geometry" />
        </mxCell>
        <mxCell id="dOSycsY1AGqAJLrcLJb7-15" value="reserves" style="shape=rhombus;perimeter=rhombusPerimeter;whiteSpace=wrap;html=1;align=center;strokeColor=#2D7600;verticalAlign=middle;fontFamily=Helvetica;fontSize=12;fontColor=#ffffff;fillColor=#60a917;" parent="1" vertex="1">
          <mxGeometry x="303" y="595" width="100" height="50" as="geometry" />
        </mxCell>
        <mxCell id="dOSycsY1AGqAJLrcLJb7-19" style="edgeStyle=orthogonalEdgeStyle;shape=connector;rounded=0;orthogonalLoop=1;jettySize=auto;html=1;exitX=0.5;exitY=0;exitDx=0;exitDy=0;entryX=0.5;entryY=1;entryDx=0;entryDy=0;strokeColor=default;align=center;verticalAlign=middle;fontFamily=Helvetica;fontSize=12;fontColor=#000000;labelBackgroundColor=default;endArrow=none;endFill=0;" parent="1" source="dOSycsY1AGqAJLrcLJb7-18" target="dOSycsY1AGqAJLrcLJb7-8" edge="1">
          <mxGeometry relative="1" as="geometry" />
        </mxCell>
        <mxCell id="dOSycsY1AGqAJLrcLJb7-18" value="datetime" style="ellipse;whiteSpace=wrap;html=1;align=center;strokeColor=#B09500;verticalAlign=middle;fontFamily=Helvetica;fontSize=12;fontColor=#000000;fillColor=#e3c800;" parent="1" vertex="1">
          <mxGeometry x="443" y="680" width="100" height="40" as="geometry" />
        </mxCell>
        <mxCell id="dOSycsY1AGqAJLrcLJb7-22" value="&lt;p style=&quot;line-height: 100%;&quot;&gt;&lt;font color=&quot;#ffffff&quot;&gt;N&lt;/font&gt;&lt;/p&gt;" style="text;html=1;align=center;verticalAlign=middle;resizable=0;points=[];autosize=1;strokeColor=none;fillColor=none;fontFamily=Helvetica;fontSize=12;fontColor=#000000;" parent="1" vertex="1">
          <mxGeometry x="273" y="580" width="30" height="50" as="geometry" />
        </mxCell>
        <mxCell id="dOSycsY1AGqAJLrcLJb7-23" value="&lt;p style=&quot;line-height: 100%;&quot;&gt;&lt;font color=&quot;#ffffff&quot;&gt;M&lt;/font&gt;&lt;/p&gt;" style="text;html=1;align=center;verticalAlign=middle;resizable=0;points=[];autosize=1;strokeColor=none;fillColor=none;fontFamily=Helvetica;fontSize=12;fontColor=#000000;" parent="1" vertex="1">
          <mxGeometry x="393" y="580" width="30" height="50" as="geometry" />
        </mxCell>
        <mxCell id="dOSycsY1AGqAJLrcLJb7-24" value="&lt;p style=&quot;line-height: 100%;&quot;&gt;&lt;font color=&quot;#ffffff&quot;&gt;1&lt;/font&gt;&lt;/p&gt;" style="text;html=1;align=center;verticalAlign=middle;resizable=0;points=[];autosize=1;strokeColor=none;fillColor=none;fontFamily=Helvetica;fontSize=12;fontColor=#000000;" parent="1" vertex="1">
          <mxGeometry x="283" y="480" width="30" height="50" as="geometry" />
        </mxCell>
      </root>
    </mxGraphModel>
  </diagram>
</mxfile>
